<svg width="150" height="150" viewBox="0 0 150 150" fill="none" xmlns="http://www.w3.org/2000/svg">
<path fill-rule="evenodd" clip-rule="evenodd" d="M43.75 59.375C43.75 57.6491 45.1491 56.25 46.875 56.25H134.375C136.101 56.25 137.5 57.6491 137.5 59.375C137.5 61.1009 136.101 62.5 134.375 62.5H46.875C45.1491 62.5 43.75 61.1009 43.75 59.375Z" fill="#00CCEA"/>
<path fill-rule="evenodd" clip-rule="evenodd" d="M12.5 59.375C12.5 57.6491 13.8991 56.25 15.625 56.25H46.875C48.6009 56.25 50 57.6491 50 59.375C50 61.1009 48.6009 62.5 46.875 62.5H15.625C13.8991 62.5 12.5 61.1009 12.5 59.375Z" fill="#9063CD"/>
<path fill-rule="evenodd" clip-rule="evenodd" d="M43.7378 28.125C43.7378 26.3991 45.1369 25 46.8628 25H103.113C104.839 25 106.238 26.3991 106.238 28.125C106.238 29.8509 104.839 31.25 103.113 31.25H46.8628C45.1369 31.25 43.7378 29.8509 43.7378 28.125Z" fill="#00C389"/>
<path fill-rule="evenodd" clip-rule="evenodd" d="M100.915 25.9153C102.136 24.6949 104.114 24.6949 105.335 25.9153L136.585 57.1653C137.76 58.341 137.81 60.2316 136.697 61.4669L80.4489 123.964C79.295 125.248 77.3192 125.353 76.0357 124.199C74.7523 123.045 74.6472 121.069 75.8011 119.786L130.068 59.487L100.915 30.3347C99.6949 29.1143 99.6949 27.1357 100.915 25.9153Z" fill="#FF7F37"/>
<path fill-rule="evenodd" clip-rule="evenodd" d="M13.5276 57.0585C14.8069 55.9001 16.7832 55.9982 17.9416 57.2775L46.0666 88.34L74.9998 120.34L107.994 83.8419C109.152 82.5616 111.128 82.4619 112.408 83.6193C113.688 84.7767 113.788 86.7528 112.631 88.0331L77.3182 127.096C76.7258 127.751 75.8836 128.125 75.0002 128.125C74.1167 128.125 73.2745 127.751 72.682 127.096L41.4335 92.535L13.3085 61.4725C12.1501 60.1931 12.2482 58.2169 13.5276 57.0585Z" fill="#FDDA24"/>
<path fill-rule="evenodd" clip-rule="evenodd" d="M49.0725 25.9153C50.2929 27.1357 50.2929 29.1143 49.0725 30.3347L19.9187 59.4885L45.9983 88.4722C47.1527 89.7552 47.0485 91.7311 45.7656 92.8855C44.4826 94.0399 42.5067 93.9357 41.3523 92.6528L13.2898 61.4653C12.1781 60.2298 12.2279 58.3405 13.4031 57.1653L44.6531 25.9153C45.8735 24.6949 47.8521 24.6949 49.0725 25.9153Z" fill="#9063CD"/>
<path fill-rule="evenodd" clip-rule="evenodd" d="M43.75 56.25C43.75 38.9616 57.7116 25 75 25C92.2884 25 106.25 38.9616 106.25 56.25C106.25 57.9759 104.851 59.375 103.125 59.375C101.399 59.375 100 57.9759 100 56.25C100 42.4134 88.8366 31.25 75 31.25C61.1634 31.25 50 42.4134 50 56.25C50 57.9759 48.6009 59.375 46.875 59.375C45.1491 59.375 43.75 57.9759 43.75 56.25Z" fill="#00C389"/>
<path fill-rule="evenodd" clip-rule="evenodd" d="M49.9856 55.9483C49.8338 54.364 48.4991 53.125 46.875 53.125C45.1491 53.125 43.75 54.5241 43.75 56.25C43.75 56.7716 43.8699 57.258 43.9265 57.4812C44.0041 57.7872 44.1069 58.1257 44.2209 58.474C44.4504 59.1753 44.7735 60.062 45.1652 61.0847C45.9515 63.1378 47.0647 65.8703 48.3869 69.0289C51.0342 75.3532 54.5585 83.4783 58.0761 91.4906C61.5952 99.5062 65.1136 107.423 67.7518 113.334C69.071 116.29 70.1704 118.745 70.94 120.462L72.1489 123.154C72.1491 123.155 72.1502 123.157 75 121.875L72.1502 123.157C72.6549 124.279 73.7703 125 75 125C76.2297 125 77.3451 124.279 77.8498 123.157L75 121.875C77.8498 123.157 77.8495 123.158 77.8498 123.157L79.06 120.462C79.8296 118.745 80.929 116.29 82.2482 113.334C84.8864 107.423 88.4048 99.5062 91.9239 91.4906C95.4415 83.4783 98.9658 75.3532 101.613 69.0289C102.935 65.8703 104.049 63.1378 104.835 61.0847C105.226 60.062 105.55 59.1753 105.779 58.474C105.893 58.1257 105.996 57.7872 106.073 57.4812C106.13 57.258 106.25 56.7716 106.25 56.25C106.25 54.5241 104.851 53.125 103.125 53.125C101.501 53.125 100.166 54.364 100.014 55.9483C100.015 55.9473 100.015 55.9463 100.015 55.9452C100.021 55.924 100.025 55.9072 100.027 55.8943C100.018 55.9511 100 56.08 100 56.25C100 56.1482 100.005 56.0476 100.014 55.9483C99.9853 56.0624 99.9303 56.2514 99.8391 56.53C99.6567 57.0876 99.3756 57.864 98.9982 58.8494C98.2464 60.8124 97.1623 63.4754 95.8478 66.6156C93.2217 72.889 89.7148 80.9748 86.2011 88.9782C82.6889 96.9782 79.1761 104.882 76.5408 110.787C75.9854 112.031 75.4691 113.187 75 114.236C74.5309 113.187 74.0146 112.031 73.4592 110.787C70.8239 104.882 67.3111 96.9782 63.7989 88.9782C60.2852 80.9748 56.7783 72.889 54.1522 66.6156C52.8377 63.4754 51.7536 60.8124 51.0018 58.8494C50.6244 57.864 50.3433 57.0876 50.1608 56.53C50.0697 56.2514 50.0147 56.0624 49.9856 55.9483Z" fill="#F5B6CD"/>
</svg>
