<svg width="150" height="150" viewBox="0 0 150 150" fill="none" xmlns="http://www.w3.org/2000/svg">
<path fill-rule="evenodd" clip-rule="evenodd" d="M73.5382 15.9882C74.4529 15.5039 75.5479 15.5039 76.4625 15.9882L129.588 44.1132C131.113 44.9207 131.695 46.8118 130.887 48.3372C130.08 49.8625 128.189 50.4444 126.663 49.6368L75.0004 22.2859L23.3375 49.6368C21.8122 50.4444 19.9211 49.8625 19.1135 48.3372C18.306 46.8118 18.8879 44.9207 20.4132 44.1132L73.5382 15.9882Z" fill="#FF7F37"/>
<path fill-rule="evenodd" clip-rule="evenodd" d="M128.125 43.75C129.851 43.75 131.25 45.1491 131.25 46.875V103.125C131.25 104.283 130.611 105.345 129.588 105.887L76.4625 134.012C74.9372 134.819 73.0461 134.237 72.2385 132.712C71.431 131.187 72.0129 129.296 73.5382 128.488L125 101.243V46.875C125 45.1491 126.399 43.75 128.125 43.75Z" fill="#FDDA24"/>
<path fill-rule="evenodd" clip-rule="evenodd" d="M21.875 43.75C23.6009 43.75 25 45.1491 25 46.875V101.243L76.4621 128.488C77.9875 129.296 78.5694 131.187 77.7618 132.712C76.9543 134.237 75.0632 134.819 73.5378 134.012L20.4129 105.887C19.3898 105.345 18.75 104.283 18.75 103.125V46.875C18.75 45.1491 20.1491 43.75 21.875 43.75Z" fill="#00C389"/>
<path fill-rule="evenodd" clip-rule="evenodd" d="M75 71.875C76.7259 71.875 78.125 73.2741 78.125 75V131.25C78.125 132.976 76.7259 134.375 75 134.375C73.2741 134.375 71.875 132.976 71.875 131.25V75C71.875 73.2741 73.2741 71.875 75 71.875Z" fill="#00CCEA"/>
<path fill-rule="evenodd" clip-rule="evenodd" d="M19.1135 45.4132C19.9211 43.8879 21.8122 43.306 23.3375 44.1135L75.0004 71.4644L126.663 44.1135C128.189 43.306 130.08 43.8879 130.887 45.4132C131.695 46.9385 131.113 48.8296 129.588 49.6372L76.4625 77.7622C75.5479 78.2464 74.4529 78.2464 73.5382 77.7622L20.4132 49.6372C18.8879 48.8296 18.306 46.9385 19.1135 45.4132Z" fill="#9063CD"/>
<path fill-rule="evenodd" clip-rule="evenodd" d="M55.9256 26.2247C56.7331 24.6994 58.6242 24.1175 60.1495 24.925L113.275 53.05C114.358 53.6236 114.965 54.7438 114.937 55.8914C114.937 55.9065 114.937 55.9217 114.937 55.9368V76.1868C114.937 77.3609 114.279 78.4359 113.234 78.9699L95.7337 87.9074C94.765 88.4022 93.6086 88.3576 92.6808 87.7896C91.7531 87.2217 91.1874 86.2122 91.1874 85.1244V66.6934L39.7252 39.4487C38.1999 38.6412 37.618 36.75 38.4256 35.2247C39.2331 33.6994 41.1242 33.1175 42.6495 33.925L95.7745 62.05C96.8534 62.6212 97.4603 63.7344 97.4374 64.8768V80.0194L108.687 74.2739V57.6934L57.2252 30.4487C55.6999 29.6412 55.118 27.75 55.9256 26.2247Z" fill="#F5B6CD"/>
</svg>
