<svg width="140" height="18" viewBox="0 0 140 18" fill="none" xmlns="http://www.w3.org/2000/svg">
<path fill-rule="evenodd" clip-rule="evenodd" d="M3.07817 6.07555C3.17975 6.47017 3.576 6.67369 3.97856 6.53989C7.27887 5.52413 10.5873 4.82903 14.0009 4.32333C14.3922 4.27097 14.6062 3.86633 14.4624 3.46042C14.1593 2.60513 14.0061 2.17861 13.6963 1.32826C13.5648 0.96723 13.2091 0.730402 12.8451 0.769921C9.50893 1.18134 6.28585 1.78893 3.05564 2.72481C2.63504 2.85692 2.37674 3.32803 2.4828 3.74594C2.71885 4.67646 2.83792 5.14221 3.07817 6.07555Z" fill="#2C2A29"/>
<path fill-rule="evenodd" clip-rule="evenodd" d="M16.4539 6.54308C16.3259 6.16088 15.9782 5.90542 15.6344 5.95045C10.4117 6.61633 5.32618 7.90774 0.503674 10.042C0.151913 10.2084 -0.0590874 10.651 0.0146509 11.041C0.203684 12.0385 0.29911 12.5377 0.492061 13.5371C0.574474 13.9645 0.973528 14.1612 1.36713 13.9693C6.26561 11.7254 11.4421 10.2966 16.7525 9.44472C17.09 9.3894 17.2621 9.00254 17.133 8.60397C16.8655 7.77761 16.7296 7.36549 16.4539 6.54308Z" fill="#2C2A29"/>
<path fill-rule="evenodd" clip-rule="evenodd" d="M16.4398 12.1126C16.3104 11.7046 15.9321 11.4384 15.5726 11.5123C12.3116 12.22 9.12407 13.0729 5.96648 14.1581C5.56602 14.3051 5.34047 14.7277 5.44569 15.1164C5.69671 16.0425 5.82306 16.5063 6.07715 17.4353C6.19651 17.8717 6.68623 18.095 7.13733 17.9231C10.2938 16.7924 13.482 15.8052 16.74 15.0137C17.0524 14.9377 17.2062 14.5712 17.09 14.1931C16.8336 13.3591 16.7036 12.9429 16.4398 12.1126Z" fill="#2C2A29"/>
<path fill-rule="evenodd" clip-rule="evenodd" d="M28.8908 11.1977C28.8908 10.0757 28.1772 9.60993 26.771 9.60993H25.0919V12.7854H26.75C28.1142 12.7854 28.8908 12.2351 28.8908 11.1977ZM26.4351 4.04235C25.9944 4.04235 25.5328 4.08469 25.0919 4.1482V6.96375H26.5191C27.7782 6.96375 28.366 6.43448 28.366 5.52429C28.366 4.6563 27.7574 4.04235 26.4351 4.04235ZM32.3325 11.3459C32.3325 13.8227 29.8561 15.474 27.0437 15.474H21.8809V1.79841C23.6019 1.54436 24.9031 1.375 26.4351 1.375C29.2684 1.375 31.5351 2.70861 31.5351 5.03737C31.5351 6.37097 30.8425 7.26014 29.6042 7.74706C31.5141 8.2975 32.3325 9.46188 32.3325 11.3459Z" fill="#2C2A29"/>
<path fill-rule="evenodd" clip-rule="evenodd" d="M39.7278 12.7649V10.9444H39.1191C37.6921 10.9444 36.3908 11.262 36.3908 12.2568C36.3908 13.019 36.8945 13.2942 37.9229 13.2942C38.7415 13.2942 39.4129 13.04 39.7278 12.7649ZM42.8129 8.80617V14.3737C41.6797 15.2417 39.8537 15.7075 37.3772 15.7075C35.1736 15.7075 33.3477 14.7972 33.3477 12.786C33.3477 9.7587 36.2649 9.01787 39.7278 8.91202C39.6648 7.59945 39.1401 7.26072 37.9858 7.26072C37.3772 7.26072 35.7611 7.53593 35.5514 7.53593C35.0476 7.53593 34.6489 7.21838 34.3131 6.28701L34.0611 5.52487C35.3624 5.03795 36.6427 4.69922 38.0279 4.69922C41.05 4.69922 42.8129 5.84243 42.8129 8.80617Z" fill="#2C2A29"/>
<path fill-rule="evenodd" clip-rule="evenodd" d="M54.3683 7.93981V15.4763H51.2202V9.06171C51.2202 7.93981 50.4858 7.36821 49.2055 7.36821C48.7229 7.36821 48.2612 7.43172 47.8623 7.53757V15.4763H44.6934L44.7142 6.05577C46.0365 5.16661 48.1771 4.67969 49.9191 4.67969C52.3328 4.67969 54.3683 5.88627 54.3683 7.93981Z" fill="#2C2A29"/>
<path fill-rule="evenodd" clip-rule="evenodd" d="M55.7344 10.3087C55.7344 6.6038 58.2948 4.65625 61.6108 4.65625C62.5342 4.65625 63.3738 4.78327 64.3811 5.01615C64.2553 6.07468 63.8144 7.00604 63.3318 7.53531C62.975 7.42945 62.3873 7.34477 62.0517 7.34477C59.9319 7.34477 59.0713 8.44564 59.0713 10.1181C59.0713 11.8116 59.8689 12.849 61.8626 12.849C62.4085 12.849 63.038 12.7431 63.8144 12.4678L64.3811 15.0082C63.2269 15.474 62.0305 15.6857 61.0861 15.6857C57.8542 15.6857 55.7344 13.738 55.7344 10.3087Z" fill="#2C2A29"/>
<path fill-rule="evenodd" clip-rule="evenodd" d="M72.7764 10.1605C72.7764 8.42447 71.9369 7.40828 70.4679 7.40828C69.0407 7.40828 68.1593 8.42447 68.1593 10.1605C68.1593 11.981 69.0198 12.9337 70.4679 12.9337C71.9369 12.9337 72.7764 11.981 72.7764 10.1605ZM64.9902 10.1605C64.9902 6.77317 67.2568 4.65625 70.4679 4.65625C73.8047 4.65625 75.9455 6.85785 75.9455 10.1605C75.9455 13.5686 73.7838 15.6857 70.4679 15.6857C67.1309 15.6857 64.9902 13.5053 64.9902 10.1605Z" fill="#2C2A29"/>
<path fill-rule="evenodd" clip-rule="evenodd" d="M77.7285 1.88338C78.463 1.33294 80.0581 0.867188 80.8974 0.867188V15.4743H77.7285V1.88338Z" fill="#2C2A29"/>
<path fill-rule="evenodd" clip-rule="evenodd" d="M90.468 10.1605C90.468 8.42447 89.6284 7.40828 88.1594 7.40828C86.7322 7.40828 85.8507 8.42447 85.8507 10.1605C85.8507 11.981 86.7112 12.9337 88.1594 12.9337C89.6284 12.9337 90.468 11.981 90.468 10.1605ZM82.6816 10.1605C82.6816 6.77317 84.9484 4.65625 88.1594 4.65625C91.4964 4.65625 93.637 6.85785 93.637 10.1605C93.637 13.5686 91.4754 15.6857 88.1594 15.6857C84.8223 15.6857 82.6816 13.5053 82.6816 10.1605Z" fill="#2C2A29"/>
<path fill-rule="evenodd" clip-rule="evenodd" d="M111.289 7.93981V15.4763H108.162V9.06171C108.162 7.93981 107.449 7.36821 106.189 7.36821C105.602 7.36821 105.035 7.49523 104.573 7.68577C104.741 8.15152 104.825 8.65961 104.825 9.21005V15.4763H101.698V9.06171C101.698 7.93981 100.984 7.36821 99.7251 7.36821C99.2425 7.36821 98.7807 7.43172 98.382 7.53757V15.4763H95.2129L95.2339 6.05577C96.4932 5.16661 98.4659 4.67969 100.124 4.67969C101.446 4.67969 102.579 5.12427 103.398 5.84407C104.468 5.1453 105.958 4.67969 107.218 4.67969C109.505 4.67969 111.289 5.90744 111.289 7.93981Z" fill="#2C2A29"/>
<path fill-rule="evenodd" clip-rule="evenodd" d="M120.881 10.0126C120.881 8.0649 119.873 7.36627 118.257 7.36627C117.607 7.36627 117.082 7.49329 116.62 7.705V13.0187C117.187 13.1032 117.733 13.1456 118.236 13.1456C120.083 13.1456 120.881 11.7061 120.881 10.0126ZM124.008 9.61021C124.008 13.4631 121.741 15.686 118.047 15.686C116.242 15.686 114.501 15.3473 113.451 14.8605V1.88338C114.186 1.33294 115.802 0.867188 116.62 0.867188V5.88433C117.523 5.10116 118.614 4.67775 119.6 4.67775C122.728 4.67775 124.008 6.85818 124.008 9.61021Z" fill="#2C2A29"/>
<path fill-rule="evenodd" clip-rule="evenodd" d="M125.792 4.97494C126.233 4.78441 126.779 4.67856 127.387 4.67856C127.996 4.67856 128.52 4.78441 128.961 4.97494V15.4751H125.792V4.97494ZM125.75 1.62999C125.75 0.74097 126.485 0 127.366 0C128.269 0 129.003 0.719799 129.003 1.62999C129.003 2.49799 128.269 3.26013 127.366 3.26013C126.485 3.26013 125.75 2.54033 125.75 1.62999Z" fill="#2C2A29"/>
<path fill-rule="evenodd" clip-rule="evenodd" d="M136.916 12.7649V10.9444H136.307C134.88 10.9444 133.578 11.262 133.578 12.2568C133.578 13.019 134.082 13.2942 135.111 13.2942C135.929 13.2942 136.601 13.04 136.916 12.7649ZM140.001 8.80617V14.3737C138.867 15.2417 137.041 15.7075 134.565 15.7075C132.361 15.7075 130.535 14.7972 130.535 12.786C130.535 9.7587 133.453 9.01787 136.916 8.91202C136.853 7.59945 136.328 7.26072 135.174 7.26072C134.565 7.26072 132.949 7.53593 132.739 7.53593C132.235 7.53593 131.836 7.21838 131.501 6.28701L131.249 5.52487C132.55 5.03795 133.83 4.69922 135.216 4.69922C138.238 4.69922 140.001 5.84243 140.001 8.80617Z" fill="#2C2A29"/>
</svg>
