<svg width="345" height="180" viewBox="0 0 345 180" fill="none" xmlns="http://www.w3.org/2000/svg">
<path d="M71.8272 125.747C71.0989 125.747 70.3568 125.552 69.684 125.15C67.7211 123.964 67.0969 121.412 68.2829 119.449L68.8725 118.478C69.0667 118.159 69.3441 117.694 69.6978 117.215L71.4734 114.802C72.382 113.692 73.3184 112.548 74.442 111.452C76.8696 108.989 79.4775 106.881 82.1964 105.189C85.0124 103.413 87.9532 101.929 90.9149 100.791C93.8834 99.6606 96.9699 98.7589 100.119 98.1069C103.233 97.5035 106.382 97.1082 109.531 96.9278C112.812 96.7891 115.961 96.8446 118.957 97.0943C119.477 97.1359 119.99 97.1983 120.504 97.2538L122.55 97.4896L123.646 97.6561C123.93 97.7047 124.173 97.7393 124.415 97.774C124.943 97.8572 125.47 97.9335 125.99 98.0376L128.182 98.4815C128.521 98.5439 128.958 98.641 129.472 98.7728L130.686 99.071C131.393 99.2444 132.128 99.4248 132.905 99.6675L135.138 100.333L137.24 101.055C139.404 101.804 140.555 104.169 139.806 106.333C139.057 108.497 136.692 109.648 134.528 108.899L132.517 108.206L130.477 107.602C129.895 107.422 129.319 107.276 128.709 107.124L127.446 106.812C127.148 106.735 126.885 106.673 126.614 106.617L124.374 106.166C123.992 106.09 123.583 106.028 123.174 105.965C122.89 105.924 122.612 105.882 122.335 105.834L121.364 105.681L120.344 105.563C120.108 105.535 119.838 105.508 119.567 105.48C119.137 105.431 118.707 105.383 118.27 105.348C115.621 105.133 112.812 105.084 109.933 105.202C107.214 105.355 104.44 105.702 101.749 106.229C99.0854 106.784 96.4151 107.561 93.8765 108.532C91.4351 109.468 88.9867 110.71 86.6007 112.208C84.409 113.574 82.3004 115.28 80.3237 117.292L80.2543 117.361C79.4567 118.131 78.7007 119.06 77.8961 120.038L77.6603 120.323L76.3494 122.154C76.2523 122.279 76.1136 122.521 75.9818 122.729L75.3784 123.721C74.6015 125.011 73.2282 125.726 71.8202 125.726L71.8272 125.747Z" fill="#FF7F41"/>
<path d="M190.113 141.894C189.121 141.894 188.115 141.72 187.13 141.36L129.645 120.219C126.677 119.158 123.438 118.367 120.081 117.895C113.429 116.966 106.452 117.299 99.911 118.86C95.2639 119.969 90.603 117.098 89.4932 112.451C88.3835 107.804 91.255 103.143 95.902 102.033C104.516 99.9799 113.707 99.543 122.481 100.764C127.01 101.402 131.4 102.47 135.548 103.954L147.096 108.192L193.109 125.123C197.59 126.773 199.886 131.74 198.242 136.227C196.952 139.723 193.643 141.894 190.127 141.894H190.113Z" fill="#9063CD"/>
<path d="M354.876 65.7508C353.433 65.7508 351.977 65.3901 350.631 64.6341C346.469 62.2898 344.999 57.0115 347.35 52.85C353.322 42.2657 361.708 28.8031 373.638 18.5518C399.73 -3.86515 443.933 -5.81415 472.169 14.196C476.067 16.9565 476.99 22.3527 474.222 26.2507C471.462 30.1487 466.066 31.0642 462.168 28.3037C440.382 12.8643 405.002 14.4041 384.908 31.6676C375.08 40.1156 368.019 51.4073 362.415 61.3396C360.827 64.1555 357.893 65.7369 354.876 65.7369V65.7508Z" fill="#59CBE8"/>
<path d="M294.263 127.703C292.591 127.703 290.948 126.891 289.949 125.393C288.36 123.014 289.005 119.796 291.384 118.208C292.55 117.431 300.339 111.605 307.143 106.458L310.202 103.698L314.433 99.1337L316.513 96.3871L318.636 93.259C319.08 92.6278 319.53 91.9273 320.009 91.1782C320.231 90.8245 320.46 90.4777 320.682 90.1309L357.338 33.2077C357.581 32.8262 357.831 32.4447 358.094 32.0494L359.253 30.3501C359.634 29.7605 360.029 29.2473 360.376 28.7826L360.681 28.3803C360.813 28.2138 360.938 28.0474 361.063 27.874C361.354 27.4786 361.694 27.0347 362.082 26.57L362.471 26.1053C363.234 25.1828 364.025 24.2326 364.912 23.2893C365.758 22.3321 366.625 21.479 367.458 20.6537L368.061 20.0572C370.634 17.6504 372.722 15.8956 374.817 14.3766L375.781 13.6553L378.541 11.7826L380.574 10.5341C380.837 10.3677 381.101 10.2081 381.378 10.0555L382.28 9.55616C387.392 6.66388 392.961 4.45131 398.794 2.9809C401.569 2.28037 404.385 3.9658 405.085 6.74017C405.786 9.51454 404.1 12.3305 401.326 13.0311C396.388 14.2726 391.685 16.1453 387.343 18.6006L386.414 19.1208C386.296 19.1902 386.178 19.2665 386.053 19.3358L384.083 20.5496L381.739 22.1449L380.927 22.7483C379.2 23.9968 377.432 25.488 375.198 27.5757L374.741 28.0266C373.971 28.7826 373.249 29.497 372.611 30.2183L372.479 30.364C371.807 31.0714 371.141 31.8691 370.44 32.7152L370.017 33.2285C369.774 33.5129 369.573 33.7903 369.365 34.0677C369.213 34.2758 369.053 34.4839 368.894 34.692L368.637 35.0318C368.359 35.3994 368.096 35.7462 367.902 36.0445L367.846 36.1277L366.688 37.834C366.487 38.1391 366.272 38.4651 366.064 38.7981L329.386 95.7629C329.165 96.1097 328.95 96.4357 328.741 96.7617C328.235 97.5524 327.708 98.3708 327.153 99.1684L324.864 102.525L322.215 105.98L317.318 111.23L313.573 114.58C312.102 115.69 299.139 125.483 297.134 126.822C296.254 127.412 295.255 127.696 294.263 127.696V127.703Z" fill="#9063CD"/>
<path d="M243.332 146.138C242.653 146.138 242.001 146.117 241.356 146.097L238.9 146.02C238.38 146.006 237.784 145.993 237.146 145.923L232.825 145.576L228.441 145.008C228.212 144.98 227.976 144.952 227.747 144.911L226.818 144.744L223.419 144.127C218.113 143.003 213.862 141.845 210.054 140.485C208.361 139.924 206.641 139.286 204.977 138.668L158.998 121.634C156.314 120.635 154.941 117.652 155.933 114.968C156.932 112.284 159.914 110.911 162.598 111.902L208.583 128.937C210.248 129.554 211.823 130.144 213.355 130.643L213.48 130.685C216.83 131.885 220.645 132.925 225.479 133.952L229.412 134.666C229.509 134.68 229.606 134.694 229.703 134.701L234.004 135.256L238.117 135.582C238.408 135.61 238.782 135.623 239.178 135.63L241.682 135.707C242.507 135.734 243.291 135.762 243.998 135.734H244.109L247.348 135.672C247.986 135.644 248.625 135.596 249.263 135.554C249.672 135.526 250.081 135.499 250.497 135.471L251.995 135.374L253.514 135.2C253.903 135.152 254.312 135.103 254.728 135.062C255.359 134.992 255.991 134.916 256.615 134.833C257.204 134.729 257.794 134.638 258.377 134.541C259.902 134.292 261.338 134.063 262.711 133.737C265.5 133.071 268.295 134.791 268.961 137.579C269.627 140.368 267.906 143.163 265.118 143.829C263.377 144.245 261.678 144.522 260.041 144.786C259.459 144.883 258.869 144.973 258.286 145.077L258.092 145.105C257.364 145.202 256.629 145.285 255.9 145.368C255.512 145.41 255.124 145.459 254.735 145.5L252.814 145.715L251.163 145.826C250.754 145.854 250.372 145.882 249.984 145.902C249.242 145.958 248.493 146.006 247.751 146.041H247.612L244.352 146.104C243.998 146.117 243.652 146.124 243.312 146.124L243.332 146.138Z" fill="#59CBE8"/>
<path d="M290.684 141.63C287.563 141.63 284.553 139.938 283.013 136.983C280.8 132.752 282.444 127.522 286.682 125.317C296.781 120.045 305.693 113.082 313.17 104.62C313.76 103.947 314.349 103.233 314.946 102.518C315.286 102.109 315.626 101.7 315.972 101.291C316.076 101.159 316.187 101.034 316.298 100.902L316.458 100.708L318.657 97.7879C319.17 97.1359 319.697 96.3452 320.266 95.4991C320.501 95.1523 320.73 94.8055 320.966 94.4587L322.159 92.6761L333.035 75.6484C335.608 71.6256 340.956 70.4465 344.978 73.0128C349.001 75.586 350.18 80.9336 347.614 84.9564L336.572 102.241L335.282 104.162C335.032 104.523 334.831 104.828 334.623 105.133C333.95 106.132 333.194 107.262 332.313 108.393L330.302 111.07C329.997 111.486 329.712 111.819 329.504 112.062L329.248 112.374C328.915 112.77 328.589 113.165 328.263 113.56C327.569 114.393 326.876 115.232 326.161 116.043C317.255 126.128 306.671 134.396 294.686 140.652C293.41 141.318 292.043 141.637 290.691 141.637L290.684 141.63Z" fill="#FF7F41"/>
</svg>
