<svg width="342" height="180" viewBox="0 0 342 180" fill="none" xmlns="http://www.w3.org/2000/svg">
<path d="M75.2288 125.765C74.5005 125.765 73.7584 125.571 73.0856 125.169C71.1227 123.983 70.4985 121.43 71.6845 119.467L72.2741 118.496C72.4683 118.177 72.7457 117.713 73.0995 117.234L74.8751 114.82C75.7837 113.711 76.72 112.566 77.8436 111.47C80.2712 109.008 82.8791 106.899 85.598 105.207C88.414 103.431 91.3548 101.947 94.3165 100.81C97.2851 99.6791 100.372 98.7775 103.52 98.1255C106.635 97.5221 109.784 97.1267 112.933 96.9464C116.213 96.8077 119.362 96.8632 122.358 97.1128C122.879 97.1545 123.392 97.2169 123.905 97.2724L125.951 97.5082L127.047 97.6747C127.332 97.7232 127.574 97.7579 127.817 97.7926C128.344 97.8758 128.871 97.9521 129.391 98.0561L131.583 98.5C131.923 98.5625 132.36 98.6596 132.873 98.7913L134.087 99.0896C134.795 99.263 135.53 99.4433 136.307 99.6861L138.54 100.352L140.642 101.073C142.806 101.822 143.957 104.187 143.208 106.352C142.459 108.516 140.094 109.667 137.93 108.918L135.918 108.224L133.879 107.621C133.296 107.44 132.721 107.295 132.11 107.142L130.848 106.83C130.55 106.754 130.286 106.691 130.016 106.636L127.775 106.185C127.394 106.109 126.985 106.046 126.576 105.984C126.291 105.942 126.014 105.901 125.736 105.852L124.765 105.7L123.746 105.582C123.51 105.554 123.239 105.526 122.969 105.498C122.539 105.45 122.109 105.401 121.672 105.367C119.022 105.152 116.213 105.103 113.335 105.221C110.616 105.374 107.842 105.72 105.15 106.247C102.487 106.802 99.8167 107.579 97.2781 108.55C94.8367 109.487 92.3883 110.728 90.0023 112.226C87.8106 113.593 85.702 115.299 83.7253 117.31L83.6559 117.38C82.8583 118.15 82.1023 119.079 81.2977 120.057L81.0619 120.341L79.751 122.172C79.6539 122.297 79.5152 122.54 79.3834 122.748L78.78 123.74C78.0032 125.03 76.6298 125.744 75.2218 125.744L75.2288 125.765Z" fill="#9062CD"/>
<path d="M193.514 141.912C192.522 141.912 191.517 141.739 190.532 141.378L133.047 120.237C130.078 119.176 126.839 118.385 123.482 117.914C116.831 116.984 109.853 117.317 103.312 118.878C98.6653 119.988 94.0043 117.116 92.8946 112.469C91.7849 107.822 94.6563 103.161 99.3034 102.051C107.918 99.9983 117.108 99.5613 125.882 100.782C130.411 101.42 134.802 102.488 138.949 103.973L150.498 108.21L196.511 125.141C200.991 126.792 203.287 131.758 201.643 136.245C200.353 139.741 197.045 141.912 193.528 141.912H193.514Z" fill="#FDDA23"/>
<path d="M297.664 127.721C295.992 127.721 294.348 126.91 293.35 125.411C291.761 123.032 292.406 119.814 294.785 118.226C295.951 117.449 303.74 111.623 310.544 106.476L313.603 103.716L317.833 99.1521L319.914 96.4054L322.037 93.2773C322.481 92.6461 322.931 91.9456 323.41 91.1965C323.632 90.8428 323.861 90.496 324.083 90.1492L360.739 33.226C360.982 32.8445 361.232 32.463 361.495 32.0677L362.653 30.3684C363.035 29.7788 363.43 29.2656 363.777 28.8009L364.082 28.3986C364.214 28.2321 364.339 28.0657 364.464 27.8923C364.755 27.4969 365.095 27.053 365.483 26.5883L365.872 26.1236C366.635 25.2011 367.425 24.2509 368.313 23.3076C369.159 22.3505 370.026 21.4973 370.859 20.672L371.462 20.0755C374.035 17.6687 376.123 15.9139 378.218 14.3949L379.182 13.6736L381.942 11.8009L383.975 10.5524C384.238 10.386 384.502 10.2264 384.779 10.0739L385.681 9.57447C390.793 6.68219 396.362 4.46962 402.195 2.99921C404.97 2.29868 407.786 3.98411 408.486 6.75848C409.187 9.53286 407.501 12.3488 404.727 13.0494C399.788 14.2909 395.086 16.1636 390.744 18.6189L389.815 19.1391C389.697 19.2085 389.579 19.2848 389.454 19.3541L387.484 20.5679L385.14 22.1632L384.328 22.7666C382.601 24.0151 380.833 25.5063 378.599 27.594L378.141 28.0449C377.372 28.8009 376.65 29.5153 376.012 30.2366L375.88 30.3823C375.208 31.0897 374.542 31.8874 373.841 32.7336L373.418 33.2468C373.175 33.5312 372.974 33.8086 372.766 34.0861C372.613 34.2941 372.454 34.5022 372.294 34.7103L372.038 35.0502C371.76 35.4178 371.497 35.7646 371.303 36.0628L371.247 36.146L370.089 37.8523C369.888 38.1575 369.673 38.4834 369.465 38.8164L332.787 95.7812C332.565 96.128 332.35 96.454 332.142 96.78C331.636 97.5707 331.109 98.3891 330.554 99.1867L328.265 102.544L325.616 105.998L320.719 111.248L316.973 114.598C315.503 115.708 302.54 125.502 300.535 126.84C299.654 127.43 298.656 127.714 297.664 127.714V127.721Z" fill="#FDDA23"/>
<path d="M246.733 146.157C246.054 146.157 245.402 146.136 244.757 146.115L242.301 146.039C241.781 146.025 241.185 146.011 240.546 145.942L236.225 145.595L231.842 145.027C231.613 144.999 231.377 144.971 231.148 144.929L230.219 144.763L226.82 144.146C221.514 143.022 217.263 141.864 213.455 140.504C211.762 139.942 210.042 139.304 208.378 138.687L162.399 121.652C159.715 120.654 158.342 117.671 159.334 114.987C160.332 112.303 163.315 110.929 165.999 111.921L211.984 128.956C213.649 129.573 215.223 130.163 216.756 130.662L216.881 130.704C220.231 131.904 224.046 132.944 228.88 133.971L232.813 134.685C232.91 134.699 233.007 134.713 233.104 134.72L237.405 135.275L241.518 135.601C241.809 135.628 242.183 135.642 242.579 135.649L245.083 135.725C245.908 135.753 246.692 135.781 247.399 135.753H247.51L250.749 135.691C251.387 135.663 252.025 135.614 252.664 135.573C253.073 135.545 253.482 135.517 253.898 135.49L255.396 135.393L256.915 135.219C257.304 135.171 257.713 135.122 258.129 135.08C258.76 135.011 259.391 134.935 260.016 134.851C260.605 134.747 261.195 134.657 261.777 134.56C263.303 134.31 264.739 134.082 266.112 133.756C268.901 133.09 271.696 134.81 272.362 137.598C273.027 140.386 271.307 143.182 268.519 143.847C266.778 144.264 265.079 144.541 263.442 144.805C262.859 144.902 262.27 144.992 261.687 145.096L261.493 145.124C260.765 145.221 260.03 145.304 259.301 145.387C258.913 145.429 258.524 145.477 258.136 145.519L256.215 145.734L254.564 145.845C254.155 145.873 253.773 145.9 253.385 145.921C252.643 145.977 251.894 146.025 251.152 146.06H251.013L247.753 146.122C247.399 146.136 247.052 146.143 246.713 146.143L246.733 146.157Z" fill="#FF7E41"/>
<path d="M294.085 141.649C290.964 141.649 287.954 139.956 286.414 137.001C284.201 132.771 285.845 127.541 290.083 125.335C300.182 120.064 309.094 113.1 316.571 104.638C317.161 103.966 317.75 103.251 318.347 102.537C318.687 102.128 319.027 101.718 319.373 101.309C319.477 101.177 319.588 101.052 319.699 100.921L319.859 100.726L322.058 97.8065C322.571 97.1545 323.098 96.3638 323.667 95.5176C323.903 95.1708 324.131 94.824 324.367 94.4772L325.56 92.6947L336.436 75.667C339.009 71.6441 344.357 70.465 348.38 73.0313C352.402 75.6046 353.581 80.9522 351.015 84.975L339.973 102.259L338.683 104.181C338.433 104.541 338.232 104.846 338.024 105.152C337.351 106.15 336.595 107.281 335.715 108.412L333.703 111.089C333.398 111.505 333.114 111.838 332.905 112.081L332.649 112.393C332.316 112.788 331.99 113.183 331.664 113.579C330.97 114.411 330.277 115.25 329.562 116.062C320.657 126.147 310.072 134.414 298.087 140.671C296.811 141.336 295.444 141.655 294.092 141.655L294.085 141.649Z" fill="#9062CD"/>
</svg>
